<svg xmlns="http://www.w3.org/2000/svg" width="190" height="160" viewBox="0 0 190 160" fill="none"><path fill-rule="evenodd" clip-rule="evenodd" d="M91.6578 79.5037C87.3487 80.6244 83.2296 82.3795 79.4352 84.7117C79.4352 84.7117 68.3585 93.0386 74.2935 109.56C80.0669 125.611 94.6841 125.993 94.6841 125.993C98.9439 125.235 103.04 123.742 106.789 121.58L91.6578 79.5037Z" fill="url(#paint0_linear_691_10254)"></path><path fill-rule="evenodd" clip-rule="evenodd" d="M93.3177 77.9883C88.8507 79.1435 84.5821 80.9635 80.6544 83.3875C80.6544 83.3875 69.1517 92.0234 75.3217 109.163C81.3008 125.831 96.4615 126.214 96.4615 126.214C100.884 125.446 105.139 123.912 109.037 121.682L93.3177 77.9883Z" fill="url(#paint1_radial_691_10254)"></path><path d="M109.09 121.697C117.708 118.589 121.177 106.285 116.837 94.2138C112.498 82.1427 101.993 74.8761 93.3747 77.9834C84.7562 81.0907 81.2875 93.3953 85.6271 105.466C89.9666 117.538 100.471 124.804 109.09 121.697Z" fill="url(#paint2_linear_691_10254)"></path><path fill-rule="evenodd" clip-rule="evenodd" d="M116.294 94.4066C120.334 105.661 117.102 117.122 109.066 120.02C101.03 122.918 91.2314 116.151 87.1915 104.896C83.1516 93.6416 86.3835 82.181 94.4193 79.2828C102.455 76.3846 112.254 83.152 116.294 94.4066Z" fill="url(#paint3_linear_691_10254)"></path><path fill-rule="evenodd" clip-rule="evenodd" d="M91.4668 78.8856L108.288 121.947C109.856 121.43 111.341 120.687 112.695 119.74L96.7554 77.2968C96.7554 77.2968 93.215 77.9735 92.7302 78.15C92.2753 78.3319 91.8496 78.5797 91.4668 78.8856Z" fill="url(#paint4_radial_691_10254)"></path><g style="mix-blend-mode:multiply" opacity="0.3"><path fill-rule="evenodd" clip-rule="evenodd" d="M96.7552 77.2821L92.73 78.1501L110.344 121.123L112.724 119.741L96.7552 77.2821Z" fill="#AFA4C6"></path></g><g style="mix-blend-mode:multiply" opacity="0.3"><path fill-rule="evenodd" clip-rule="evenodd" d="M84.2832 122.492L86.7806 123.198L96.4323 119.711C98.2631 120.964 100.35 121.791 102.541 122.132C104.732 122.473 106.972 122.319 109.096 121.682C105.205 123.928 100.947 125.462 96.5205 126.214C92.1712 126.162 87.9266 124.871 84.2832 122.492Z" fill="#AFA4C6"></path></g><g style="mix-blend-mode:soft-light" opacity="0.5"><path fill-rule="evenodd" clip-rule="evenodd" d="M73.0737 95.407L84.2239 90.1107C84.8399 86.5808 86.4978 83.3167 88.9836 80.7393L78.7002 85.3882C78.7002 85.3882 74.0286 90.5962 73.0737 95.407Z" fill="#FBF9FA"></path></g><path fill-rule="evenodd" clip-rule="evenodd" d="M50.1858 48.5792C47.6236 48.4404 45.0548 48.6783 42.5614 49.2854C42.5614 49.2854 35.0251 51.9188 35.3924 62.0405C35.3784 64.7318 36.1606 67.3669 37.6404 69.6133C39.1202 71.8598 41.2313 73.6171 43.7073 74.6633C46.1535 74.9941 48.6384 74.8996 51.0526 74.3838L50.1858 48.5792Z" fill="url(#paint5_linear_691_10254)"></path><path fill-rule="evenodd" clip-rule="evenodd" d="M51.4053 48.0496C48.7488 47.8952 46.0843 48.1432 43.5017 48.7852C43.5017 48.7852 35.6716 51.5069 36.0536 62.0259C36.0378 64.8175 36.8486 67.5512 38.3834 69.8817C39.9182 72.2121 42.1083 74.0348 44.677 75.1194C47.2445 75.4759 49.8545 75.3813 52.3896 74.8399L51.4053 48.0496Z" fill="url(#paint6_radial_691_10254)"></path><path fill-rule="evenodd" clip-rule="evenodd" d="M61.4683 61.0842C61.7328 68.4401 57.6635 74.6338 52.3896 74.8251C47.1156 75.0163 42.6056 69.1757 42.3265 61.7904C42.0474 54.405 46.1313 48.2408 51.4053 48.0495C56.6792 47.8582 61.1892 53.6841 61.4683 61.0842Z" fill="url(#paint7_linear_691_10254)"></path><path d="M52.6681 73.8744C57.5897 73.6945 61.3757 67.9603 61.1245 61.0667C60.8733 54.173 56.6799 48.7304 51.7584 48.9103C46.8368 49.0902 43.0508 54.8244 43.302 61.718C43.5532 68.6117 47.7466 74.0543 52.6681 73.8744Z" fill="url(#paint8_linear_691_10254)"></path><path fill-rule="evenodd" clip-rule="evenodd" d="M50.2007 48.1968L51.8901 74.8253C52.8512 74.8268 53.8071 74.6829 54.7254 74.3986L53.3886 48.2557C53.3886 48.2557 51.3172 48.0056 51.0234 48.0203C50.7426 48.0426 50.466 48.102 50.2007 48.1968Z" fill="url(#paint9_radial_691_10254)"></path><g style="mix-blend-mode:multiply" opacity="0.3"><path fill-rule="evenodd" clip-rule="evenodd" d="M53.3886 48.2555L51.0234 48.0201L53.1683 74.7369L54.7255 74.3985L53.3886 48.2555Z" fill="#AFA4C6"></path></g><g style="mix-blend-mode:multiply" opacity="0.3"><path fill-rule="evenodd" clip-rule="evenodd" d="M38.6099 70.9119L39.8585 71.7357L45.7348 71.5151C46.5192 72.5269 47.5204 73.3496 48.6645 73.9225C49.8087 74.4954 51.0666 74.8039 52.3455 74.8252C49.8121 75.3798 47.1998 75.4745 44.633 75.1048C42.2705 74.304 40.1825 72.8504 38.6099 70.9119Z" fill="#AFA4C6"></path></g><g style="mix-blend-mode:soft-light" opacity="0.5"><path fill-rule="evenodd" clip-rule="evenodd" d="M37.1997 54.0521L44.2512 53.0959C45.207 51.2633 46.6915 49.7613 48.5115 48.7853L42.0329 49.5209C40.1105 50.6594 38.4607 52.2061 37.1997 54.0521Z" fill="#FBF9FA"></path></g><path fill-rule="evenodd" clip-rule="evenodd" d="M189.967 139.719V140.484C190.183 143.353 189.33 146.2 187.571 148.474C185.813 150.749 183.275 152.289 180.448 152.798L157.648 156.859L140.827 159.801C139.331 160.082 137.794 160.065 136.305 159.752C134.815 159.438 133.402 158.834 132.145 157.973C129.608 156.235 127.864 153.558 127.297 150.533C126.73 147.507 127.387 144.379 129.122 141.838C130.858 139.297 133.531 137.551 136.552 136.983L176.114 129.171C177.728 128.842 179.394 128.863 181 129.23C182.606 129.598 184.115 130.305 185.426 131.303C186.737 132.302 187.821 133.569 188.604 135.02C189.387 136.472 189.852 138.074 189.967 139.719Z" fill="url(#paint10_radial_691_10254)"></path><path fill-rule="evenodd" clip-rule="evenodd" d="M157.706 156.859L140.886 159.801C139.39 160.082 137.853 160.065 136.363 159.752C134.874 159.438 133.46 158.834 132.204 157.973C129.666 156.235 127.922 153.558 127.356 150.532C126.789 147.507 127.445 144.379 129.181 141.838C130.917 139.297 133.589 137.551 136.611 136.983L151.859 133.967C150.023 149.723 157.706 156.859 157.706 156.859Z" fill="url(#paint11_radial_691_10254)"></path><path style="mix-blend-mode:screen" opacity="0.5" fill-rule="evenodd" clip-rule="evenodd" d="M135.362 137.365C135.362 137.365 136.17 144.074 151.713 141.779C161.516 140.109 170.636 135.662 177.994 128.965C177.994 128.965 155.797 133.246 135.362 137.365Z" fill="url(#paint12_linear_691_10254)"></path><path style="mix-blend-mode:screen" opacity="0.5" fill-rule="evenodd" clip-rule="evenodd" d="M142.032 159.006C142.032 159.006 145.631 155.181 156.943 152.945C168.254 150.709 175.703 153.298 175.703 153.298L142.032 159.006Z" fill="url(#paint13_linear_691_10254)"></path><path fill-rule="evenodd" clip-rule="evenodd" d="M182.931 89.2575L183.254 89.64C184.504 91.0783 185.171 92.934 185.122 94.8407C185.073 96.7473 184.312 98.5663 182.989 99.9383L172.486 110.987L164.729 119.137C163.329 120.527 161.446 121.319 159.475 121.348C157.504 121.377 155.599 120.64 154.158 119.293C152.718 117.946 151.855 116.092 151.749 114.121C151.644 112.15 152.305 110.215 153.593 108.721L171.531 89.1251C172.255 88.327 173.14 87.6917 174.128 87.261C175.116 86.8304 176.183 86.6142 177.26 86.6267C178.337 86.6392 179.4 86.8802 180.377 87.3336C181.354 87.7871 182.225 88.4428 182.931 89.2575Z" fill="url(#paint14_radial_691_10254)"></path><path fill-rule="evenodd" clip-rule="evenodd" d="M172.5 110.928L164.744 119.078C163.343 120.468 161.46 121.26 159.49 121.289C157.519 121.318 155.613 120.582 154.173 119.234C152.733 117.887 151.869 116.033 151.764 114.062C151.659 112.091 152.319 110.156 153.608 108.662L160.527 101.1C165.654 110.134 172.5 110.928 172.5 110.928Z" fill="url(#paint15_radial_691_10254)"></path><path style="mix-blend-mode:screen" opacity="0.5" fill-rule="evenodd" clip-rule="evenodd" d="M153.064 109.339C153.064 109.339 156.105 112.576 163.465 105.323C168.015 100.611 171.124 94.695 172.427 88.2719C172.427 88.2719 162.364 99.1439 153.064 109.339Z" fill="url(#paint16_linear_691_10254)"></path><path style="mix-blend-mode:screen" opacity="0.5" fill-rule="evenodd" clip-rule="evenodd" d="M165.022 118.166C165.022 118.166 165.448 114.739 170.576 109.133C173.308 105.973 176.767 103.524 180.653 101.998L165.022 118.166Z" fill="url(#paint17_linear_691_10254)"></path><path fill-rule="evenodd" clip-rule="evenodd" d="M127.664 8.60719C127.812 10.4518 127.411 12.2989 126.511 13.915C125.61 15.5311 124.252 16.8435 122.607 17.6865C120.962 18.5294 119.104 18.8648 117.269 18.6505C115.433 18.4361 113.703 17.6815 112.295 16.4822C110.888 15.2828 109.868 13.6924 109.363 11.9123C108.858 10.1321 108.892 8.24204 109.46 6.48107C110.028 4.72011 111.105 3.16733 112.554 2.01909C114.003 0.870845 115.759 0.178704 117.601 0.0301843C118.824 -0.0684415 120.055 0.0751818 121.223 0.452856C122.39 0.83053 123.472 1.43486 124.407 2.23132C125.341 3.02779 126.11 4.0008 126.669 5.09478C127.228 6.18876 127.566 7.38228 127.664 8.60719Z" fill="url(#paint18_radial_691_10254)"></path><path fill-rule="evenodd" clip-rule="evenodd" d="M125.637 5.90023C125.523 4.90565 125.053 3.98601 124.315 3.31095C124.024 2.99208 123.645 2.7682 123.226 2.66848C122.806 2.56876 122.367 2.59783 121.964 2.7519C121.968 3.21083 122.07 3.66367 122.263 4.07984C122.456 4.49601 122.736 4.86581 123.084 5.16426C123.432 5.4627 123.84 5.68284 124.281 5.80981C124.721 5.93678 125.184 5.96761 125.637 5.90023Z" fill="white"></path><path fill-rule="evenodd" clip-rule="evenodd" d="M16.6327 48.8295C16.7638 50.4737 16.4053 52.1199 15.6024 53.5601C14.7995 55.0002 13.5883 56.1697 12.1219 56.9206C10.6555 57.6716 8.99971 57.9703 7.3638 57.7791C5.72788 57.5878 4.18529 56.9152 2.93102 55.8462C1.67674 54.7772 0.767101 53.3598 0.317035 51.7731C-0.133031 50.1865 -0.103328 48.5019 0.40244 46.9322C0.908208 45.3625 1.86733 43.9781 3.15854 42.9542C4.44975 41.9302 6.01509 41.3126 7.65673 41.1793C9.85943 41.0045 12.0415 41.7117 13.7242 43.1459C15.4069 44.58 16.4528 46.624 16.6327 48.8295Z" fill="url(#paint19_radial_691_10254)"></path><path fill-rule="evenodd" clip-rule="evenodd" d="M14.7672 46.4166C14.6744 45.5233 14.256 44.6957 13.5919 44.0921C13.3354 43.8074 12.9987 43.6073 12.6263 43.518C12.254 43.4287 11.8633 43.4545 11.5059 43.5919C11.5058 44.0016 11.5938 44.4064 11.7639 44.779C11.9339 45.1516 12.1821 45.4831 12.4915 45.7511C12.8009 46.0191 13.1643 46.2172 13.557 46.332C13.9496 46.4469 14.3624 46.4757 14.7672 46.4166Z" fill="white"></path><defs><linearGradient id="paint0_linear_691_10254" x1="94.5041" y1="126.685" x2="79.0681" y2="83.8722" gradientUnits="userSpaceOnUse"><stop offset="0.02" stop-color="#A49AC6"></stop><stop offset="1" stop-color="#C8C7DF"></stop></linearGradient><radialGradient id="paint1_radial_691_10254" cx="0" cy="0" r="1" gradientUnits="userSpaceOnUse" gradientTransform="translate(76.3489 88.1195) rotate(-19.9117) scale(29.3156 26.1878)"><stop stop-color="#EBD7E3"></stop><stop offset="0.38" stop-color="#D8C6DC"></stop><stop offset="0.98" stop-color="#BDAFD2"></stop></radialGradient><linearGradient id="paint2_linear_691_10254" x1="109.062" y1="121.707" x2="93.3117" y2="78.0217" gradientUnits="userSpaceOnUse"><stop offset="0.02" stop-color="#D6CEE3"></stop><stop offset="1" stop-color="#F4EFFF"></stop></linearGradient><linearGradient id="paint3_linear_691_10254" x1="109.044" y1="120.051" x2="94.3613" y2="79.3275" gradientUnits="userSpaceOnUse"><stop offset="0.02" stop-color="#E2DCEB"></stop><stop offset="1" stop-color="white"></stop></linearGradient><radialGradient id="paint4_radial_691_10254" cx="0" cy="0" r="1" gradientUnits="userSpaceOnUse" gradientTransform="translate(96.5577 86.8309) rotate(-19.9117) scale(16.3322 21.7306)"><stop stop-color="#EBD7E3"></stop><stop offset="0.98" stop-color="#BDAFD2"></stop></radialGradient><linearGradient id="paint5_linear_691_10254" x1="5598.38" y1="2611.7" x2="5579.55" y2="2141.7" gradientUnits="userSpaceOnUse"><stop offset="0.02" stop-color="#A49AC6"></stop><stop offset="1" stop-color="#C8C7DF"></stop></linearGradient><radialGradient id="paint6_radial_691_10254" cx="0" cy="0" r="1" gradientUnits="userSpaceOnUse" gradientTransform="translate(6532.5 24093) rotate(-2.29392) scale(188.497 280.319)"><stop stop-color="#EBD7E3"></stop><stop offset="0.38" stop-color="#D8C6DC"></stop><stop offset="0.98" stop-color="#BDAFD2"></stop></radialGradient><linearGradient id="paint7_linear_691_10254" x1="6944.02" y1="2609.97" x2="6924.49" y2="2122.22" gradientUnits="userSpaceOnUse"><stop offset="0.02" stop-color="#D6CEE3"></stop><stop offset="1" stop-color="#F4EFFF"></stop></linearGradient><linearGradient id="paint8_linear_691_10254" x1="6452.39" y1="2444.59" x2="6436.89" y2="2020.45" gradientUnits="userSpaceOnUse"><stop offset="0.02" stop-color="#E2DCEB"></stop><stop offset="1" stop-color="white"></stop></linearGradient><radialGradient id="paint9_radial_691_10254" cx="0" cy="0" r="1" gradientUnits="userSpaceOnUse" gradientTransform="translate(-767.098 -63836) rotate(-2.29391) scale(29.0721 229.043)"><stop stop-color="#EBD7E3"></stop><stop offset="0.98" stop-color="#BDAFD2"></stop></radialGradient><radialGradient id="paint10_radial_691_10254" cx="0" cy="0" r="1" gradientUnits="userSpaceOnUse" gradientTransform="translate(181.664 136.533) rotate(-11.1757) scale(28.9274 28.9661)"><stop stop-color="#00FFFF"></stop><stop offset="0.99" stop-color="#26A9FF"></stop></radialGradient><radialGradient id="paint11_radial_691_10254" cx="0" cy="0" r="1" gradientUnits="userSpaceOnUse" gradientTransform="translate(149.012 138.92) rotate(-11.1758) scale(20.803 20.8309)"><stop stop-color="#7C65E0"></stop><stop offset="0.99" stop-color="#954CB8"></stop></radialGradient><linearGradient id="paint12_linear_691_10254" x1="158.124" y1="140.629" x2="156.647" y2="133.153" gradientUnits="userSpaceOnUse"><stop offset="0.36"></stop><stop offset="1" stop-color="#E5EFE5"></stop></linearGradient><linearGradient id="paint13_linear_691_10254" x1="141.823" y1="157.99" x2="175.308" y2="151.394" gradientUnits="userSpaceOnUse"><stop></stop><stop offset="1" stop-color="#E5EFE5"></stop></linearGradient><radialGradient id="paint14_radial_691_10254" cx="0" cy="0" r="1" gradientUnits="userSpaceOnUse" gradientTransform="translate(15890.4 -5531.74) rotate(-47.4608) scale(435.188 451.892)"><stop stop-color="#00FFFF"></stop><stop offset="0.99" stop-color="#26A9FF"></stop></radialGradient><radialGradient id="paint15_radial_691_10254" cx="0" cy="0" r="1" gradientUnits="userSpaceOnUse" gradientTransform="translate(9422.77 -3443.07) rotate(-47.4608) scale(194.481 188.954)"><stop stop-color="#7C65E0"></stop><stop offset="0.99" stop-color="#954CB8"></stop></radialGradient><linearGradient id="paint16_linear_691_10254" x1="9355.27" y1="-2800.84" x2="9300.3" y2="-2851.29" gradientUnits="userSpaceOnUse"><stop offset="0.36"></stop><stop offset="1" stop-color="#E5EFE5"></stop></linearGradient><linearGradient id="paint17_linear_691_10254" x1="7315.52" y1="-2311.76" x2="7478.29" y2="-2488.64" gradientUnits="userSpaceOnUse"><stop></stop><stop offset="1" stop-color="#E5EFE5"></stop></linearGradient><radialGradient id="paint18_radial_691_10254" cx="0" cy="0" r="1" gradientUnits="userSpaceOnUse" gradientTransform="translate(123.822 6.65111) rotate(-4.58051) scale(13.6913 13.7108)"><stop stop-color="#FFE534"></stop><stop offset="0.8" stop-color="#FF9A47"></stop><stop offset="0.98" stop-color="#FFB83D"></stop></radialGradient><radialGradient id="paint19_radial_691_10254" cx="0" cy="0" r="1" gradientUnits="userSpaceOnUse" gradientTransform="translate(5505.84 1229.09) scale(138.104 138.295)"><stop stop-color="#FFE534"></stop><stop offset="0.8" stop-color="#FF9A47"></stop><stop offset="0.98" stop-color="#FFB83D"></stop></radialGradient></defs></svg>